<?xml version="1.0" encoding="UTF-8"?>
<svg width="257px" height="257px" viewBox="0 0 257 257" version="1.1" xmlns="http://www.w3.org/2000/svg" xmlns:xlink="http://www.w3.org/1999/xlink">
    <!-- Generator: Sketch 53.2 (72643) - https://sketchapp.com -->
    <title>slack/logo</title>
    <desc>Created with Sketch.</desc>
    <g id="slack/logo" stroke="none" stroke-width="1" fill="none" fill-rule="evenodd">
        <rect fill="#4D384B" x="0" y="0" width="257" height="257"></rect>
        <g id="Slack_RGB" transform="translate(63.000000, 63.000000)" fill="#FFFFFF" fill-rule="nonzero">
            <g id="Group">
                <g transform="translate(0.000000, 68.120482)" id="Path">
                    <path d="M28.0738956,14.4497992 C28.0738956,21.9843373 21.9843373,28.0738956 14.4497992,28.0738956 C6.91526104,28.0738956 0.825702811,21.9843373 0.825702811,14.4497992 C0.825702811,6.91526104 6.91526104,0.825702811 14.4497992,0.825702811 L28.0738956,0.825702811 L28.0738956,14.4497992 Z"></path>
                    <path d="M34.8859438,14.4497992 C34.8859438,6.91526104 40.975502,0.825702811 48.5100402,0.825702811 C56.0445783,0.825702811 62.1341365,6.91526104 62.1341365,14.4497992 L62.1341365,48.5100402 C62.1341365,56.0445783 56.0445783,62.1341365 48.5100402,62.1341365 C40.975502,62.1341365 34.8859438,56.0445783 34.8859438,48.5100402 L34.8859438,14.4497992 Z"></path>
                </g>
                <g id="Path">
                    <path d="M48.5100402,27.8674699 C40.975502,27.8674699 34.8859438,21.7779116 34.8859438,14.2433735 C34.8859438,6.70883534 40.975502,0.619277108 48.5100402,0.619277108 C56.0445783,0.619277108 62.1341365,6.70883534 62.1341365,14.2433735 L62.1341365,27.8674699 L48.5100402,27.8674699 Z"></path>
                    <path d="M48.5100402,34.7827309 C56.0445783,34.7827309 62.1341365,40.8722892 62.1341365,48.4068273 C62.1341365,55.9413655 56.0445783,62.0309237 48.5100402,62.0309237 L14.3465863,62.0309237 C6.81204819,62.0309237 0.72248996,55.9413655 0.72248996,48.4068273 C0.72248996,40.8722892 6.81204819,34.7827309 14.3465863,34.7827309 L48.5100402,34.7827309 Z"></path>
                </g>
                <g transform="translate(68.120482, 0.000000)" id="Path">
                    <path d="M34.9891566,48.4068273 C34.9891566,40.8722892 41.0787149,34.7827309 48.613253,34.7827309 C56.1477912,34.7827309 62.2373494,40.8722892 62.2373494,48.4068273 C62.2373494,55.9413655 56.1477912,62.0309237 48.613253,62.0309237 L34.9891566,62.0309237 L34.9891566,48.4068273 Z"></path>
                    <path d="M28.1771084,48.4068273 C28.1771084,55.9413655 22.0875502,62.0309237 14.553012,62.0309237 C7.0184739,62.0309237 0.928915663,55.9413655 0.928915663,48.4068273 L0.928915663,14.2433735 C0.928915663,6.70883534 7.0184739,0.619277108 14.553012,0.619277108 C22.0875502,0.619277108 28.1771084,6.70883534 28.1771084,14.2433735 L28.1771084,48.4068273 Z"></path>
                </g>
                <g transform="translate(68.120482, 68.120482)" id="Path">
                    <path d="M14.553012,34.8859438 C22.0875502,34.8859438 28.1771084,40.975502 28.1771084,48.5100402 C28.1771084,56.0445783 22.0875502,62.1341365 14.553012,62.1341365 C7.0184739,62.1341365 0.928915663,56.0445783 0.928915663,48.5100402 L0.928915663,34.8859438 L14.553012,34.8859438 Z"></path>
                    <path d="M14.553012,28.0738956 C7.0184739,28.0738956 0.928915663,21.9843373 0.928915663,14.4497992 C0.928915663,6.91526104 7.0184739,0.825702811 14.553012,0.825702811 L48.7164659,0.825702811 C56.251004,0.825702811 62.3405622,6.91526104 62.3405622,14.4497992 C62.3405622,21.9843373 56.251004,28.0738956 48.7164659,28.0738956 L14.553012,28.0738956 Z"></path>
                </g>
            </g>
        </g>
    </g>
</svg>