<svg xmlns="http://www.w3.org/2000/svg" xmlns:xlink="http://www.w3.org/1999/xlink" width="257" height="257" viewBox="0 0 257 257"><defs><circle id="logo-a" cx="128.5" cy="128.5" r="124.5"/><polygon id="logo-c" points="0 1.146 149.861 1.146 149.861 151.928 0 151.928"/></defs><g fill="none" fill-rule="evenodd"><circle cx="128" cy="128" r="125" fill="#FFF" transform="translate(.5 .5)"/><mask id="logo-b" fill="#fff"><use xlink:href="#logo-a"/></mask><use fill="#4D384B" xlink:href="#logo-a"/><g mask="url(#logo-b)"><g transform="translate(53 53)"><mask id="logo-d" fill="#fff"><use xlink:href="#logo-c"/></mask><polyline fill="#FFFFFE" points="61.691 70.248 68.147 89.649 88.17 82.898 81.715 63.497 61.691 70.248" mask="url(#logo-d)"/><path fill="#FFFFFE" d="M117.543913,89.4881905 L107.834373,92.7610159 L111.199516,102.873841 C112.562111,106.969397 110.369016,111.401524 106.300405,112.771937 C105.415976,113.071111 104.51477,113.20019 103.633937,113.176063 C100.46054,113.094032 97.5340159,111.045651 96.468627,107.841587 L93.1034841,97.7275556 L73.0804048,104.477079 L76.4455476,114.591111 C77.8081429,118.68546 75.6150476,123.117587 71.5464365,124.489206 C70.6620079,124.787175 69.762,124.916254 68.8799683,124.893333 C65.7077698,124.810095 62.781246,122.761714 61.7146587,119.557651 L58.3495159,109.443619 L48.6387778,112.717651 C47.7531508,113.015619 46.8531429,113.144698 45.9711111,113.121778 C42.7989127,113.03854 39.8723889,110.990159 38.8058016,107.786095 C37.4432063,103.69054 39.6375,99.259619 43.7049127,97.888 L53.4156508,94.6151746 L46.9598016,75.2146667 L37.2502619,78.4874921 C36.3658333,78.7854603 35.464627,78.9145397 34.5825952,78.891619 C31.4115952,78.808381 28.483873,76.76 27.4184841,73.5559365 C26.0558889,69.460381 28.2489841,65.0294603 32.3175952,63.6578413 L42.0259365,60.3850159 L38.6607937,50.2709841 C37.2981984,46.1766349 39.4912937,41.7457143 43.5599048,40.3728889 C47.6285159,39.0024762 52.0302857,41.2100952 53.3916825,45.3044444 L56.7568254,55.4184762 L76.7799048,48.6689524 L73.4147619,38.5549206 C72.0521667,34.4593651 74.2464603,30.0284444 78.313873,28.6568254 C82.3812857,27.2852063 86.784254,29.4940317 88.1468492,33.588381 L91.5119921,43.7024127 L101.221532,40.428381 C105.291341,39.0579683 109.691913,41.2655873 111.054508,45.3599365 C112.417103,49.4554921 110.22281,53.8864127 106.155397,55.2580317 L96.4458571,58.5308571 L102.900508,77.9325714 L112.611246,74.6585397 C116.679857,73.288127 121.081627,75.495746 122.443024,79.5900952 C123.805619,83.6844444 121.612524,88.1165714 117.543913,89.4881905 Z M143.589016,55.8382857 C128.140278,4.00387302 105.825833,-8.09098413 54.3324365,7.46006349 C2.83903968,23.0111111 -9.17624603,45.4733333 6.27249206,97.307746 C21.7212302,149.142159 44.0356746,161.237016 95.5290714,145.685968 C147.022468,130.134921 159.037754,107.672698 143.589016,55.8382857 Z" mask="url(#logo-d)"/></g></g></g></svg>