<svg height="257" viewBox="0 0 257 257" width="257" xmlns="http://www.w3.org/2000/svg" xmlns:xlink="http://www.w3.org/1999/xlink"><defs><circle id="a" cx="128.5" cy="128.5" r="125.5"/><mask id="b" fill="#fff"><use fill="none" xlink:href="#a"/></mask><mask id="c" fill="#fff"><path d="m.00024712 1.14628051h149.86101388v150.78133849h-149.86101388z" fill="none"/></mask></defs><g fill="none" fill-rule="evenodd"><use fill="#4d384b" xlink:href="#a"/><g mask="url(#b)"><g fill="#fffffe" fill-rule="evenodd" transform="translate(53 53)"><path d="m61.6906905 70.248127 6.4558492 19.4005079 20.0230793-6.7507301-6.4546507-19.400508z" mask="url(#c)"/><path d="m117.543913 89.4881905-9.70954 3.2728254 3.365143 10.1128251c1.362595 4.095556-.8305 8.527683-4.899111 9.898096-.884429.299174-1.785635.428253-2.666468.404126-3.173397-.082031-6.0999211-2.130412-7.16531-5.334476l-3.3651429-10.1140314-20.0230793 6.7495234 3.3651428 10.114032c1.3625953 4.094349-.8305 8.526476-4.8991111 9.898095-.8844286.297969-1.7844365.427048-2.6664682.404127-3.1721985-.083238-6.0987223-2.131619-7.1653096-5.335682l-3.3651428-10.114032-9.7107381 3.274032c-.885627.297968-1.7856349.427047-2.6676667.404127-3.1721984-.083238-6.0987222-2.131619-7.1653095-5.335683-1.3625953-4.095555.8316984-8.526476 4.8991111-9.898095l9.7107381-3.2728254-6.4558492-19.4005079-9.7095397 3.2728254c-.8844286.2979682-1.7856349.4270476-2.6676667.4041269-3.171-.083238-6.0987222-2.131619-7.1641111-5.3356825-1.3625952-4.0955555.8305-8.5264762 4.8991111-9.8980952l9.7083413-3.2728254-3.3651428-10.1140318c-1.3625953-4.0943492.8305-8.5252698 4.8991111-9.8980952 4.0686111-1.3704127 8.4703809.8372063 9.8317777 4.9315555l3.3651429 10.1140318 20.0230794-6.7495238-3.3651429-10.1140318c-1.3625952-4.0955555.8316984-8.5264762 4.8991111-9.8980952 4.0674127-1.3716191 8.470381.8372063 9.8329762 4.9315556l3.3651429 10.1140317 9.7095399-3.2740317c4.069809-1.3704127 8.470381.8372063 9.832976 4.9315555 1.362595 4.0955556-.831698 8.5264762-4.899111 9.8980952l-9.7095399 3.2728254 6.4546509 19.4017143 9.710738-3.2740317c4.068611-1.3704127 8.470381.8372063 9.831778 4.9315555 1.362595 4.0943492-.8305 8.5264762-4.899111 9.8980953zm26.045103-33.6499048c-15.448738-51.83441268-37.763183-63.92926983-89.2565795-48.37822221-51.49339682 15.55104761-63.50868253 38.01326981-48.05994444 89.84768251 15.44873814 51.834413 37.76318254 63.92927 89.25657934 48.378222 51.4933966-15.551047 63.5086826-38.01327 48.0599446-89.8476823z" mask="url(#c)"/></g></g></g></svg>