<svg height="257" viewBox="0 0 257 257" width="257" xmlns="http://www.w3.org/2000/svg"><g fill="none" fill-rule="evenodd"><path d="m0 0h257v257h-257z" fill="#4d384b"/><g fill="#fff" fill-rule="nonzero"><g transform="translate(63 131.120482)"><path d="m28.0738956 14.4497992c0 7.5345381-6.0895583 13.6240964-13.6240964 13.6240964-7.53453816 0-13.62409639-6.0895583-13.62409639-13.6240964 0-7.53453816 6.08955823-13.62409639 13.62409639-13.62409639h13.6240964z"/><path d="m34.8859438 14.4497992c0-7.53453816 6.0895582-13.62409639 13.6240964-13.62409639 7.5345381 0 13.6240963 6.08955823 13.6240963 13.62409639v34.060241c0 7.5345381-6.0895582 13.6240963-13.6240963 13.6240963-7.5345382 0-13.6240964-6.0895582-13.6240964-13.6240963z"/></g><g transform="translate(63 63)"><path d="m48.5100402 27.8674699c-7.5345382 0-13.6240964-6.0895583-13.6240964-13.6240964 0-7.53453816 6.0895582-13.62409639 13.6240964-13.62409639 7.5345381 0 13.6240963 6.08955823 13.6240963 13.62409639v13.6240964z"/><path d="m48.5100402 34.7827309c7.5345381 0 13.6240963 6.0895583 13.6240963 13.6240964 0 7.5345382-6.0895582 13.6240964-13.6240963 13.6240964h-34.1634539c-7.53453811 0-13.62409634-6.0895582-13.62409634-13.6240964 0-7.5345381 6.08955823-13.6240964 13.62409634-13.6240964z"/></g><g transform="translate(131.120482 63)"><path d="m34.9891566 48.4068273c0-7.5345381 6.0895583-13.6240964 13.6240964-13.6240964 7.5345382 0 13.6240964 6.0895583 13.6240964 13.6240964 0 7.5345382-6.0895582 13.6240964-13.6240964 13.6240964h-13.6240964z"/><path d="m28.1771084 48.4068273c0 7.5345382-6.0895582 13.6240964-13.6240964 13.6240964-7.5345381 0-13.62409634-6.0895582-13.62409634-13.6240964v-34.1634538c0-7.53453816 6.08955824-13.62409639 13.62409634-13.62409639 7.5345382 0 13.6240964 6.08955823 13.6240964 13.62409639z"/></g><g transform="translate(131.120482 131.120482)"><path d="m14.553012 34.8859438c7.5345382 0 13.6240964 6.0895582 13.6240964 13.6240964 0 7.5345381-6.0895582 13.6240963-13.6240964 13.6240963-7.5345381 0-13.62409634-6.0895582-13.62409634-13.6240963v-13.6240964z"/><path d="m14.553012 28.0738956c-7.5345381 0-13.62409634-6.0895583-13.62409634-13.6240964 0-7.53453816 6.08955824-13.62409639 13.62409634-13.62409639h34.1634539c7.5345381 0 13.6240963 6.08955823 13.6240963 13.62409639 0 7.5345381-6.0895582 13.6240964-13.6240963 13.6240964z"/></g></g></g></svg>