<svg height="360" viewBox="0 0 640 360" width="640" xmlns="http://www.w3.org/2000/svg"><g fill="none" fill-rule="evenodd"><path d="m0 0h640v360h-640z" fill="#4d384b"/><g fill="#fff" fill-rule="nonzero"><g transform="translate(252 134)"><path d="m.38053097 73.8084112 4.71858407-10.9009346c5.09911506 3.7850468 11.87256636 5.7532711 18.56991146 5.7532711 4.9469027 0 8.0672567-1.8925234 8.0672567-4.7691589-.0761062-8.0242991-29.60530975-1.7411215-29.83362833-21.8775701-.0761062-10.2196262 9.05663713-18.0925234 21.99469023-18.0925234 7.6867257 0 15.3734514 1.8925234 20.8530974 6.2074767l-4.4141593 11.1280373c-5.0230089-3.1794392-11.2637168-5.4504672-17.2-5.4504672-4.0336283 0-6.6973451 1.8925233-6.6973451 4.3149532.0761061 7.8728972 29.8336283 3.557944 30.1380531 22.7859813 0 10.446729-8.9044248 17.7897197-21.6902655 17.7897197-9.361062 0-17.96106198-2.1953271-24.50619473-6.8887851"/><path d="m181.437168 58.971028c-2.359292 4.0878505-6.773451 6.8887851-11.872566 6.8887851-7.534514 0-13.623009-6.0560748-13.623009-13.5504673s6.088495-13.5504673 13.623009-13.5504673c5.099115 0 9.513274 2.8009346 11.872566 6.8887851l13.014159-7.1915888c-4.870796-8.6299066-14.231858-14.5345795-24.886725-14.5345795-15.753983 0-28.539823 12.717757-28.539823 28.3878505s12.78584 28.3878505 28.539823 28.3878505c10.730973 0 20.015929-5.828972 24.886725-14.5345795z"/><path d="m53.122124.378505h16.286726v79.258879h-16.286726z"/><path d="m200.844248.37850467v79.25887853h16.286725v-23.7700935l19.330974 23.7700935h20.853097l-24.582301-28.2364486 22.755753-26.3439253h-19.939823l-18.4177 21.8775701v-46.55607473z"/><path d="m117.812389 59.1224299c-2.359292 3.8607477-7.230088 6.7373832-12.709734 6.7373832-7.5345134 0-13.623009-6.0560748-13.623009-13.5504673s6.0884956-13.5504673 13.623009-13.5504673c5.479646 0 10.350442 3.0280374 12.709734 6.964486zm0-34.0654206v6.4345795c-2.663716-4.4663552-9.284955-7.5700935-16.210619-7.5700935-14.3079647 0-25.5716815 12.5663552-25.5716815 28.3121496s11.2637168 28.4635514 25.5716815 28.4635514c6.925664 0 13.546903-3.1037384 16.210619-7.5700935v6.4345794h16.286726v-54.5046729z"/></g><g transform="translate(130 182.409449)"><path d="m20.7748031 10.6929134c0 5.5755905-4.5062992 10.0818897-10.0818897 10.0818897-5.57559057 0-10.08188978-4.5062992-10.08188978-10.0818897 0-5.57559057 4.50629921-10.08188978 10.08188978-10.08188978h10.0818897z"/><path d="m25.815748 10.6929134c0-5.57559057 4.5062992-10.08188978 10.0818898-10.08188978 5.5755905 0 10.0818898 4.50629921 10.0818898 10.08188978v25.2047244c0 5.5755905-4.5062993 10.0818898-10.0818898 10.0818898-5.5755906 0-10.0818898-4.5062993-10.0818898-10.0818898z"/></g><g transform="translate(130 132)"><path d="m35.8976378 20.6220472c-5.5755906 0-10.0818898-4.5062992-10.0818898-10.0818897 0-5.57559057 4.5062992-10.08188978 10.0818898-10.08188978 5.5755905 0 10.0818898 4.50629921 10.0818898 10.08188978v10.0818897z"/><path d="m35.8976378 25.7393701c5.5755905 0 10.0818898 4.5062992 10.0818898 10.0818897 0 5.5755906-4.5062993 10.0818898-10.0818898 10.0818898h-25.2811024c-5.57559052 0-10.08188973-4.5062992-10.08188973-10.0818898 0-5.5755905 4.50629921-10.0818897 10.08188973-10.0818897z"/></g><g transform="translate(180.409449 132)"><path d="m25.892126 35.8212598c0-5.5755905 4.5062992-10.0818897 10.0818897-10.0818897 5.5755906 0 10.0818898 4.5062992 10.0818898 10.0818897 0 5.5755906-4.5062992 10.0818898-10.0818898 10.0818898h-10.0818897z"/><path d="m20.8511811 35.8212598c0 5.5755906-4.5062992 10.0818898-10.0818898 10.0818898-5.57559051 0-10.08188972-4.5062992-10.08188972-10.0818898v-25.2811023c0-5.57559057 4.50629921-10.08188978 10.08188972-10.08188978 5.5755906 0 10.0818898 4.50629921 10.0818898 10.08188978z"/></g><g transform="translate(180.409449 182.409449)"><path d="m10.7692913 25.815748c5.5755906 0 10.0818898 4.5062992 10.0818898 10.0818898 0 5.5755905-4.5062992 10.0818898-10.0818898 10.0818898-5.57559051 0-10.08188972-4.5062993-10.08188972-10.0818898v-10.0818898z"/><path d="m10.7692913 20.7748031c-5.57559051 0-10.08188972-4.5062992-10.08188972-10.0818897 0-5.57559057 4.50629921-10.08188978 10.08188972-10.08188978h25.2811024c5.5755906 0 10.0818898 4.50629921 10.0818898 10.08188978 0 5.5755905-4.5062992 10.0818897-10.0818898 10.0818897z"/></g></g></g></svg>