<svg xmlns="http://www.w3.org/2000/svg" xmlns:xlink="http://www.w3.org/1999/xlink" width="640" height="360" viewBox="0 0 640 360"><defs><polygon id="picture-a" points=".291 .381 107.384 .381 107.384 82.261 .291 82.261"/><polygon id="picture-c" points="0 .763 99.984 .763 99.984 101.149 0 101.149"/></defs><g fill="none" fill-rule="evenodd"><rect width="640" height="360" fill="#4D384B"/><g transform="translate(142 130)"><path fill="#FFFFFE" d="M160.949324 28.2837165C164.073164 29.6530866 164.301036 30.680315 161.858412 35.3586614 159.35902 40.1518583 158.733773 40.4369764 155.6667 39.1816535 151.804077 37.5271654 146.862061 36.2718425 143.681453 36.2718425 138.455597 36.2718425 134.990349 38.1544252 134.990349 41.0072126 134.990349 50.4225354 164.926284 45.3442205 164.926284 65.4285827 164.926284 75.528189 156.291149 82.2609921 143.340845 82.2609921 136.523885 82.2609921 128.116622 79.9792441 122.323086 77.0116063 119.426318 75.528189 119.256014 74.6720315 121.755405 69.8796378 123.914189 65.6566772 124.595405 65.2004882 127.719245 66.5128346 132.661261 68.6813386 138.909741 70.3358268 143.113773 70.3358268 147.884685 70.3358268 151.066092 68.3962205 151.066092 65.5426299 151.066092 56.4132283 120.619245 60.7502362 120.619245 41.2931339 120.619245 30.9654331 129.196813 24.0607559 142.034381 24.0607559 148.055788 24.0607559 155.6667 25.8871181 160.949324 28.2837165M185.092523 4.43258268L185.092523 79.2941575C185.092523 80.4354331 183.900394 81.6337323 182.196554 81.6337323L174.356971 81.6337323C172.653131 81.6337323 171.460203 80.4354331 171.460203 79.2941575L171.460203 4.43258268C171.460203.723637795 172.482827.381496063 178.276363.381496063 184.86625.381496063 185.092523.837685039 185.092523 4.43258268M204.690282 65.2004882C204.690282 69.0234803 207.927658 71.5911496 212.812905 71.5911496 218.720777 71.5911496 224.059369 68.7383622 227.184009 63.8881417L227.184009 58.8668504C224.059369 57.6685512 220.253514 56.9842677 216.845833 56.9842677 209.57473 56.9842677 204.690282 60.464315 204.690282 65.2004882zM240.816329 46.5425197L240.816329 78.7809449C240.816329 80.4924567 239.6242 81.6907559 237.92036 81.6907559L230.194313 81.6907559C228.433705 81.6907559 227.184009 80.3784094 227.297545 78.609874L227.411081 75.1290236C223.207849 79.8073701 217.186441 82.2609921 211.165034 82.2609921 199.463626 82.2609921 191.624842 75.4711654 191.624842 65.3145354 191.624842 54.5306457 200.48625 47.2838268 213.778761 47.2268031 218.834313 47.2268031 223.434921 48.1399843 227.184009 49.6804252L227.184009 45.9714803C227.184009 40.0370079 222.525833 36.499937 214.630282 36.499937 210.937962 36.499937 206.394122 37.9833543 202.75857 40.0948346 199.975338 41.6922992 199.293322 41.578252 196.283018 37.0709764 193.329482 32.5628976 193.442218 31.7067402 196.283018 29.8811811 201.735946 26.3433071 209.120586 24.0607559 215.936745 24.0607559 231.216937 24.0607559 240.816329 32.3918268 240.816329 46.5425197z"/><g transform="translate(247.06)"><mask id="picture-b" fill="#fff"><use xlink:href="#picture-a"/></mask><path fill="#FFFFFE" d="M46.9271622 28.3977638C49.7663626 30.052252 49.8806982 30.9654331 46.7560586 35.8148504 43.8025225 40.3799528 43.2916104 40.6650709 40.1677703 39.0676063 37.7819144 37.8122835 33.975259 36.7280315 30.8514189 36.7280315 21.024955 36.7280315 14.4918356 43.2327402 14.4918356 53.0472283 14.4918356 63.2608819 21.024955 70.1077323 30.8514189 70.1077323 34.2598986 70.1077323 38.5198986 68.7953858 41.3031306 67.2549449 44.1431306 65.5996535 44.7683784 65.7137008 47.7786824 70.1077323 50.5051464 74.2158425 50.4483784 75.1860472 48.0057545 76.8975591 43.6322185 79.9222205 36.701723 82.2609921 30.6243468 82.2609921 12.4473874 82.2609921.291036036 70.5639213.291036036 53.0472283.291036036 35.6437795 12.4473874 24.0607559 30.7378829 24.0607559 36.3043468 24.0607559 42.8374662 25.9441417 46.9271622 28.3977638M106.231351 74.5579843C108.503671 77.4677953 107.594583 78.4950236 101.913784 80.5494803 96.1202477 82.6609606 95.3246959 82.5461102 93.2802477 79.8643937L77.0342005 58.0685197 69.7630968 65.1434646 69.7630968 79.2941575C69.7630968 80.4354331 68.5709685 81.6337323 66.8671284 81.6337323L59.027545 81.6337323C57.323705 81.6337323 56.130777 80.4354331 56.130777 79.2941575L56.130777 4.43258268C56.130777.723637795 57.1534009.381496063 62.9469369.381496063 69.5368243.381496063 69.7630968.837685039 69.7630968 4.43258268L69.7630968 46.9987087 92.0305518 25.5441732C94.4731757 23.2054016 95.8364077 23.3764724 100.209944 26.2862835 105.038423 29.424189 105.379032 30.2803465 103.049944 32.5628976L86.4632883 48.7672441 106.231351 74.5579843" mask="url(#picture-b)"/></g><polyline fill="#FFFFFE" points="41.158 47.572 45.466 60.488 58.824 55.994 54.518 43.078 41.158 47.572"/><g transform="translate(0 .803)"><mask id="picture-d" fill="#fff"><use xlink:href="#picture-c"/></mask><polyline fill="#FFFFFE" points="41.158 46.769 45.466 59.685 58.824 55.191 54.518 42.275 41.158 46.769" mask="url(#picture-d)"/><path fill="#FFFFFE" d="M78.4222185,59.5784409 L71.944268,61.7573858 L74.1894032,68.490189 C75.098491,71.2168819 73.6353153,74.1676535 70.9208446,75.0800315 C70.330777,75.2792126 69.7295158,75.3651496 69.1418468,75.3490866 C67.0246396,75.2944724 65.0721396,73.9307244 64.3613401,71.7975591 L62.116205,65.0639528 L48.7573311,69.5575748 L51.0024662,76.2911811 C51.9115541,79.0170709 50.4483784,81.9678425 47.7339077,82.8810236 C47.1438401,83.0794016 46.5433784,83.1653386 45.9549099,83.1500787 C43.8385023,83.0946614 41.8860023,81.7309134 41.1744032,79.597748 L38.929268,72.8641417 L32.450518,75.0438898 C31.8596509,75.2422677 31.2591892,75.3282047 30.6707207,75.3129449 C28.5543131,75.2575276 26.6018131,73.8937795 25.890214,71.7606142 C24.9811261,69.0339213 26.4451014,66.0839528 29.1587725,65.1707717 L35.6375225,62.9918268 L31.3303491,50.0755748 L24.8523986,52.2545197 C24.2623311,52.4528976 23.6610698,52.5388346 23.0726014,52.5235748 C20.9569932,52.4681575 19.0036937,51.1044094 18.2928941,48.9712441 C17.3838063,46.2445512 18.846982,43.2945827 21.5614527,42.3814016 L28.0386036,40.2024567 L25.7934685,33.4688504 C24.8843806,30.7429606 26.3475563,27.7929921 29.062027,26.8790079 C31.7764977,25.9666299 34.7132432,27.4363937 35.6215315,30.1622835 L37.8666667,36.8958898 L51.2255405,32.4022677 L48.9804054,25.6686614 C48.0713176,22.9419685 49.5352928,19.992 52.248964,19.0788189 C54.9626351,18.1656378 57.9001802,19.6362047 58.809268,22.3620945 L61.0544032,29.0957008 L67.5323536,26.9159528 C70.2476239,26.0035748 73.1835698,27.4733386 74.0926577,30.1992283 C75.0017455,32.9259213 73.5377703,35.8758898 70.8240991,36.7890709 L64.3461486,38.9680157 L68.6525225,51.8850709 L75.1312725,49.7053228 C77.8457432,48.7929449 80.7824887,50.2627087 81.690777,52.9885984 C82.5998649,55.7144882 81.1366892,58.6652598 78.4222185,59.5784409 Z M95.7988288,37.1753858 C85.4918356,2.66565354 70.604223,-5.38672441 36.2491779,4.96667717 C1.89413288,15.3200787 -6.1221509,30.2747244 4.18484234,64.7844567 C14.4918356,99.294189 29.3794482,107.346567 63.7344932,96.9931654 C98.0895383,86.6397638 106.105822,71.6851181 95.7988288,37.1753858 Z" mask="url(#picture-d)"/></g></g></g></svg>