<svg height="360" viewBox="0 0 640 360" width="640" xmlns="http://www.w3.org/2000/svg" xmlns:xlink="http://www.w3.org/1999/xlink"><mask id="a" fill="#fff"><path d="m.29103604.38149606h107.09326596v81.87949604h-107.09326596z" fill="none"/></mask><mask id="b" fill="#fff"><path d="m.00016487.76315774h99.98334143v100.38550326h-99.98334143z" fill="none"/></mask><g fill="none" fill-rule="evenodd"><path d="m0 0h640v360h-640z" fill="#4d384b"/><g fill="#fffffe" transform="translate(142 130)"><path d="m160.949324 28.2837165c3.12384 1.3693701 3.351712 2.3965985.909088 7.0749449-2.499392 4.7931969-3.124639 5.078315-6.191712 3.8229921-3.862623-1.6544881-8.804639-2.909811-11.985247-2.909811-5.225856 0-8.691104 1.8825827-8.691104 4.7353701 0 9.4153228 29.935935 4.3370079 29.935935 24.4213701 0 10.0996063-8.635135 16.8324094-21.585439 16.8324094-6.81696 0-15.224223-2.281748-21.017759-5.2493858-2.896768-1.4834173-3.067072-2.3395748-.567681-7.1319685 2.158784-4.2229606 2.84-4.6791496 5.96384-3.3668032 4.942016 2.168504 11.190496 3.8229922 15.394528 3.8229922 4.770912 0 7.952319-1.9396063 7.952319-4.7931969 0-9.1294016-30.446847-4.7923937-30.446847-24.249496 0-10.3277008 8.577568-17.232378 21.415136-17.232378 6.021407 0 13.632319 1.8263622 18.914943 4.2229606"/><path d="m185.092523 4.43258268v74.86157482c0 1.1412756-1.192129 2.3395748-2.895969 2.3395748h-7.839583c-1.70384 0-2.896768-1.1982992-2.896768-2.3395748v-74.86157482c0-3.70894488 1.022624-4.05108662 6.81616-4.05108662 6.589887 0 6.81616.45618898 6.81616 4.05108662"/><path d="m204.690282 65.2004882c0 3.8229921 3.237376 6.3906614 8.122623 6.3906614 5.907872 0 11.246464-2.8527874 14.371104-7.7030079v-5.0212913c-3.12464-1.1982992-6.930495-1.8825827-10.338176-1.8825827-7.271103 0-12.155551 3.4800473-12.155551 8.2162205zm36.126047-18.6579685v32.2384252c0 1.7115118-1.192129 2.909811-2.895969 2.909811h-7.726047c-1.760608 0-3.010304-1.3123465-2.896768-3.0808819l.113536-3.4808504c-4.203232 4.6783465-10.22464 7.1319685-16.246047 7.1319685-11.701408 0-19.540192-6.7898267-19.540192-16.9464567 0-10.7838897 8.861408-18.0307086 22.153919-18.0877323 5.055552 0 9.65616.9131812 13.405248 2.4536221v-3.7089449c0-5.9344724-4.658176-9.4715433-12.553727-9.4715433-3.69232 0-8.23616 1.4834173-11.871712 3.5948976-2.783232 1.5974646-3.465248 1.4834174-6.475552-3.0238582-2.953536-4.5080788-2.8408-5.3642362 0-7.1897953 5.452928-3.537874 12.837568-5.8204252 19.653727-5.8204252 15.280192 0 24.879584 8.3310709 24.879584 22.4817638z"/><g transform="translate(247.060811)"><path d="m46.9271622 28.3977638c2.8392004 1.6544882 2.953536 2.5676693-.1711036 7.4170866-2.9535361 4.5651024-3.4644482 4.8502205-6.5882883 3.2527559-2.3858559-1.2553228-6.1925113-2.3395748-9.3163514-2.3395748-9.8264639 0-16.3595833 6.5047087-16.3595833 16.3191968 0 10.2136536 6.5331194 17.060504 16.3595833 17.060504 3.4084797 0 7.6684797-1.3123465 10.4517117-2.8527874 2.84-1.6552914 3.4652478-1.5412441 6.4755518 2.8527874 2.726464 4.1081102 2.669696 5.0783149.2270721 6.7898268-4.373536 3.0246614-11.3040315 5.363433-17.3814077 5.363433-18.1769594 0-30.33331076-11.6970708-30.33331076-29.2137638 0-17.4034488 12.15635136-28.9864724 30.44684686-28.9864724 5.5664639 0 12.0995833 1.8833858 16.1892793 4.3370079" mask="url(#a)"/><path d="m106.231351 74.5579843c2.27232 2.909811 1.363232 3.9370393-4.317567 5.991496-5.7935363 2.1114803-6.5890881 1.9966299-8.6335363-.6850866l-16.2460472-21.795874-7.2711037 7.0749449v14.1506929c0 1.1412756-1.1921283 2.3395748-2.8959684 2.3395748h-7.8395834c-1.70384 0-2.896768-1.1982992-2.896768-2.3395748v-74.86157482c0-3.70894488 1.0226239-4.05108662 6.8161599-4.05108662 6.5898874 0 6.8161599.45618898 6.8161599 4.05108662v42.56612602l22.267455-21.4545355c2.4426239-2.3387716 3.8058559-2.1677008 8.1793922.7421103 4.828479 3.1379055 5.169088 3.994063 2.84 6.2766141l-16.5866557 16.2043465z" mask="url(#a)"/></g><path d="m41.1584122 47.5721575 4.3071734 12.9162519 13.3588739-4.4944251-4.3063739-12.916252z"/><g transform="translate(0 .80315)"><path d="m41.1584122 46.7690079 4.3071734 12.9162519 13.3588739-4.4944252-4.3063739-12.9162519z" mask="url(#b)"/><path d="m78.4222185 59.5784409-6.4779505 2.1789449 2.2451352 6.7328032c.9090878 2.7266929-.5540879 5.6774645-3.2685586 6.5898425-.5900676.1991811-1.1913288.2851181-1.7789978.2690551-2.1172072-.0546142-4.0697072-1.4183622-4.7805067-3.5515275l-2.2451351-6.7336063-13.3588739 4.493622 2.2451351 6.7336063c.9090879 2.7258898-.5540878 5.6766614-3.2685585 6.5898425-.5900676.198378-1.1905293.284315-1.7789978.2690551-2.1164076-.0554173-4.0689076-1.4191653-4.7805067-3.5523307l-2.2451352-6.7336063-6.47875 2.1797481c-.5908671.1983779-1.1913288.2843149-1.7797973.2690551-2.1164076-.0554173-4.0689076-1.4191654-4.7805067-3.5523307-.9090879-2.7266929.5548874-5.6766614 3.2685585-6.5898425l6.47875-2.1789449-4.3071734-12.916252-6.4779505 2.1789449c-.5900675.1983779-1.1913288.2843149-1.7797972.2690551-2.1156082-.0554173-4.0689077-1.4191654-4.7797073-3.5523307-.9090878-2.7266929.5540879-5.6766614 3.2685586-6.5898425l6.4771509-2.1789449-2.2451351-6.7336063c-.9090879-2.7258898.5540878-5.6758583 3.2685585-6.5898425 2.7144707-.912378 5.6512162.5573858 6.5595045 3.2832756l2.2451352 6.7336063 13.3588738-4.4936221-2.2451351-6.7336063c-.9090878-2.7266929.5548874-5.6766614 3.2685586-6.5898425 2.7136711-.9131811 5.6512162.5573858 6.560304 3.2832756l2.2451352 6.7336063 6.4779504-2.179748c2.7152703-.912378 5.6512162.5573858 6.5603041 3.2832755.9090878 2.726693-.5548874 5.6766615-3.2685586 6.5898426l-6.4779505 2.1789448 4.3063739 12.9170552 6.47875-2.1797481c2.7144707-.9123779 5.6512162.5573859 6.5595045 3.2832756.9090879 2.7258898-.5540878 5.6766614-3.2685585 6.5898425zm17.3766103-22.4030551c-10.3069932-34.50973226-25.1946058-42.56211021-59.5496509-32.20870863-34.35504502 10.35340153-42.3713288 25.30804723-32.06433556 59.81777953 10.30699326 34.5097323 25.19460586 42.5621103 59.54965086 32.2087087 34.3550451-10.3534016 42.3713288-25.3080473 32.0643356-59.8177796z" mask="url(#b)"/></g></g></g></svg>