<svg xmlns="http://www.w3.org/2000/svg" width="640" height="360" viewBox="0 0 640 360">
  <g fill="none" fill-rule="evenodd" transform="translate(209 69)">
    <path fill="#DFA22F" fill-rule="nonzero" d="M143.921508,13.7348852 C140.547836,3.3500164 129.395066,-2.33281967 119.012016,1.04267213 C108.627148,4.41634426 102.944311,15.5691148 106.319803,25.952164 L157.438033,183.230066 C160.948181,192.930738 171.427672,198.382475 181.486819,195.487377 C191.979049,192.466722 198.375197,181.323049 195.027,171.018246 C194.899623,170.625197 143.921508,13.7348852 143.921508,13.7348852"/>
    <path fill="#3CB187" fill-rule="nonzero" d="M64.7148197,39.4705082 C61.3393278,29.087459 50.1865574,23.404623 39.8035082,26.7782951 C29.4186393,30.1519672 23.7358033,41.3047377 27.1112951,51.6896066 L78.2295246,208.967508 C81.7396722,218.668181 92.2191642,224.119918 102.278311,221.223 C112.770541,218.204164 119.166689,207.060492 115.818492,196.753869 C115.691115,196.36264 64.7148197,39.4705082 64.7148197,39.4705082"/>
    <path fill="#CE1E5B" fill-rule="nonzero" d="M208.265115,143.992475 C218.649984,140.618803 224.331,129.466033 220.957328,119.081164 C217.583656,108.698115 206.430885,103.015278 196.047836,106.388951 L38.7699344,157.509 C29.0692623,161.017328 23.6175246,171.496819 26.512623,181.555967 C29.5332787,192.048197 40.6769508,198.444344 50.9817541,195.096148 C51.3748033,194.96877 208.265115,143.992475 208.265115,143.992475"/>
    <path fill="#392538" fill-rule="nonzero" d="M71.5495082,188.414311 C81.7869836,185.087951 94.9814261,180.800803 109.140295,176.200672 C105.813934,165.963197 101.526787,152.766934 96.9248358,138.606246 L59.3322295,150.825344 L71.5495082,188.414311"/>
    <path fill="#BB242A" fill-rule="nonzero" d="M150.758016,162.676869 C164.969656,158.06036 178.178656,153.767754 188.348803,150.46323 C185.022443,140.225754 180.733475,127.025852 176.131525,112.861525 L138.538918,125.080623 L150.758016,162.676869"/>
    <path fill="#72C5CD" fill-rule="nonzero" d="M182.529492,64.7839672 C192.912541,61.4102951 198.595377,50.2575246 195.221705,39.8726557 C191.848033,29.4896066 180.695262,23.8067705 170.310393,27.1804426 L13.0324918,78.3004918 C3.33181967,81.8088197 -2.11991803,92.2883111 0.777,102.347459 C3.79583607,112.839689 14.9395082,119.235836 25.2461311,115.88764 C25.6373607,115.760262 182.529492,64.7839672 182.529492,64.7839672"/>
    <path fill="#248C73" fill-rule="nonzero" d="M45.8066066,109.207623 C56.0440819,105.881262 69.242164,101.592295 83.4028525,96.9921642 C78.7863443,82.7787049 74.4937377,69.5697049 71.1892131,59.3977377 L33.5875082,71.6186557 L45.8066066,109.207623"/>
    <path fill="#62803A" fill-rule="nonzero" d="M125.013295,83.472 C139.228574,78.8536722 152.439393,74.5610656 162.61136,71.2547213 C157.993033,57.0394426 153.700426,43.8268033 150.394082,33.6530164 L112.794197,45.8739344 L125.013295,83.472"/>
  </g>
</svg>
