<?xml version="1.0" encoding="UTF-8"?>
<svg width="640px" height="360px" viewBox="0 0 640 360" version="1.1" xmlns="http://www.w3.org/2000/svg" xmlns:xlink="http://www.w3.org/1999/xlink">
    <!-- Generator: Sketch 53.2 (72643) - https://sketchapp.com -->
    <title>slack/picture</title>
    <desc>Created with Sketch.</desc>
    <g id="slack/picture" stroke="none" stroke-width="1" fill="none" fill-rule="evenodd">
        <rect id="Rectangle" fill="#4D384B" x="0" y="0" width="640" height="360"></rect>
        <g id="Slack_RGB" transform="translate(130.000000, 132.000000)" fill="#FFFFFF" fill-rule="nonzero">
            <g id="Group" transform="translate(122.000000, 2.000000)">
                <path d="M0.380530973,73.8084112 L5.09911504,62.9074766 C10.1982301,66.6925234 16.9716814,68.6607477 23.6690265,68.6607477 C28.6159292,68.6607477 31.7362832,66.7682243 31.7362832,63.8915888 C31.660177,55.8672897 2.13097345,62.1504673 1.90265487,42.0140187 C1.82654867,31.7943925 10.959292,23.9214953 23.8973451,23.9214953 C31.5840708,23.9214953 39.2707965,25.8140187 44.7504425,30.128972 L40.3362832,41.2570093 C35.3132743,38.0775701 29.0725664,35.8065421 23.1362832,35.8065421 C19.1026549,35.8065421 16.4389381,37.6990654 16.4389381,40.1214953 C16.5150442,47.9943925 46.2725664,43.6794393 46.5769912,62.9074766 C46.5769912,73.3542056 37.6725664,80.6971963 24.8867257,80.6971963 C15.5256637,80.6971963 6.92566372,78.5018692 0.380530973,73.8084112" id="Path"></path>
                <path d="M181.437168,58.971028 C179.077876,63.0588785 174.663717,65.8598131 169.564602,65.8598131 C162.030088,65.8598131 155.941593,59.8037383 155.941593,52.3093458 C155.941593,44.8149533 162.030088,38.7588785 169.564602,38.7588785 C174.663717,38.7588785 179.077876,41.5598131 181.437168,45.6476636 L194.451327,38.4560748 C189.580531,29.8261682 180.219469,23.9214953 169.564602,23.9214953 C153.810619,23.9214953 141.024779,36.6392523 141.024779,52.3093458 C141.024779,67.9794393 153.810619,80.6971963 169.564602,80.6971963 C180.295575,80.6971963 189.580531,74.8682243 194.451327,66.1626168 L181.437168,58.971028 Z" id="Path"></path>
                <rect id="Rectangle" x="53.1221239" y="0.378504673" width="16.2867257" height="79.2588785"></rect>
                <polygon id="Path" points="200.844248 0.378504673 200.844248 79.6373832 217.130973 79.6373832 217.130973 55.8672897 236.461947 79.6373832 257.315044 79.6373832 232.732743 51.4009346 255.488496 25.0570093 235.548673 25.0570093 217.130973 46.9345794 217.130973 0.378504673"></polygon>
                <path d="M117.812389,59.1224299 C115.453097,62.9831776 110.582301,65.8598131 105.102655,65.8598131 C97.5681416,65.8598131 91.479646,59.8037383 91.479646,52.3093458 C91.479646,44.8149533 97.5681416,38.7588785 105.102655,38.7588785 C110.582301,38.7588785 115.453097,41.7869159 117.812389,45.7233645 L117.812389,59.1224299 Z M117.812389,25.0570093 L117.812389,31.4915888 C115.148673,27.0252336 108.527434,23.9214953 101.60177,23.9214953 C87.2938053,23.9214953 76.0300885,36.4878505 76.0300885,52.2336449 C76.0300885,67.9794393 87.2938053,80.6971963 101.60177,80.6971963 C108.527434,80.6971963 115.148673,77.5934579 117.812389,73.1271028 L117.812389,79.5616822 L134.099115,79.5616822 L134.099115,25.0570093 L117.812389,25.0570093 Z" id="Shape"></path>
            </g>
            <g id="Group">
                <g transform="translate(0.000000, 50.409449)" id="Path">
                    <path d="M20.7748031,10.6929134 C20.7748031,16.2685039 16.2685039,20.7748031 10.6929134,20.7748031 C5.11732283,20.7748031 0.611023622,16.2685039 0.611023622,10.6929134 C0.611023622,5.11732283 5.11732283,0.611023622 10.6929134,0.611023622 L20.7748031,0.611023622 L20.7748031,10.6929134 Z"></path>
                    <path d="M25.815748,10.6929134 C25.815748,5.11732283 30.3220472,0.611023622 35.8976378,0.611023622 C41.4732283,0.611023622 45.9795276,5.11732283 45.9795276,10.6929134 L45.9795276,35.8976378 C45.9795276,41.4732283 41.4732283,45.9795276 35.8976378,45.9795276 C30.3220472,45.9795276 25.815748,41.4732283 25.815748,35.8976378 L25.815748,10.6929134 Z"></path>
                </g>
                <g id="Path">
                    <path d="M35.8976378,20.6220472 C30.3220472,20.6220472 25.815748,16.115748 25.815748,10.5401575 C25.815748,4.96456693 30.3220472,0.458267717 35.8976378,0.458267717 C41.4732283,0.458267717 45.9795276,4.96456693 45.9795276,10.5401575 L45.9795276,20.6220472 L35.8976378,20.6220472 Z"></path>
                    <path d="M35.8976378,25.7393701 C41.4732283,25.7393701 45.9795276,30.2456693 45.9795276,35.8212598 C45.9795276,41.3968504 41.4732283,45.9031496 35.8976378,45.9031496 L10.6165354,45.9031496 C5.04094488,45.9031496 0.534645669,41.3968504 0.534645669,35.8212598 C0.534645669,30.2456693 5.04094488,25.7393701 10.6165354,25.7393701 L35.8976378,25.7393701 Z"></path>
                </g>
                <g transform="translate(50.409449, 0.000000)" id="Path">
                    <path d="M25.892126,35.8212598 C25.892126,30.2456693 30.3984252,25.7393701 35.9740157,25.7393701 C41.5496063,25.7393701 46.0559055,30.2456693 46.0559055,35.8212598 C46.0559055,41.3968504 41.5496063,45.9031496 35.9740157,45.9031496 L25.892126,45.9031496 L25.892126,35.8212598 Z"></path>
                    <path d="M20.8511811,35.8212598 C20.8511811,41.3968504 16.3448819,45.9031496 10.7692913,45.9031496 C5.19370079,45.9031496 0.687401575,41.3968504 0.687401575,35.8212598 L0.687401575,10.5401575 C0.687401575,4.96456693 5.19370079,0.458267717 10.7692913,0.458267717 C16.3448819,0.458267717 20.8511811,4.96456693 20.8511811,10.5401575 L20.8511811,35.8212598 Z"></path>
                </g>
                <g transform="translate(50.409449, 50.409449)" id="Path">
                    <path d="M10.7692913,25.815748 C16.3448819,25.815748 20.8511811,30.3220472 20.8511811,35.8976378 C20.8511811,41.4732283 16.3448819,45.9795276 10.7692913,45.9795276 C5.19370079,45.9795276 0.687401575,41.4732283 0.687401575,35.8976378 L0.687401575,25.815748 L10.7692913,25.815748 Z"></path>
                    <path d="M10.7692913,20.7748031 C5.19370079,20.7748031 0.687401575,16.2685039 0.687401575,10.6929134 C0.687401575,5.11732283 5.19370079,0.611023622 10.7692913,0.611023622 L36.0503937,0.611023622 C41.6259843,0.611023622 46.1322835,5.11732283 46.1322835,10.6929134 C46.1322835,16.2685039 41.6259843,20.7748031 36.0503937,20.7748031 L10.7692913,20.7748031 Z"></path>
                </g>
            </g>
        </g>
    </g>
</svg>